/* XPM */
static const char * dead_xpm[] = {
"20 20 3 1",
" 	c None",
".	c #ffff3f",
"#	c #000000",
"                    ",
"       ######       ",
"     ##......##     ",
"    #..........#    ",
"   #............#   ",
"  #..............#  ",
"  #..#.#...#.#...#  ",
" #....#.....#.....# ",
" #...#.#...#.#....# ",
" #................# ",
" #................# ",
" #................# ",
" #......####......# ",
"  #....#    #....#  ",
"  #...#......#...#  ",
"   #............#   ",
"    #..........#    ",
"     ##......##     ",
"       ######       ",
"                    "};
