<?xml version="1.0" encoding="iso-8859-1"?>
<!-- Generator: Adobe Illustrator 12.0.0, SVG Export Plug-In . SVG Version: 6.00 Build 51448)  -->
<!DOCTYPE svg PUBLIC "-//W3C//DTD SVG 1.1//EN" "http://www.w3.org/Graphics/SVG/1.1/DTD/svg11.dtd" [
	<!ENTITY ns_svg "http://www.w3.org/2000/svg">
	<!ENTITY ns_xlink "http://www.w3.org/1999/xlink">
]>
<svg  version="1.1" id="&#xCD;_xBC__xB2_&#xE3;_x5F_1" xmlns="&ns_svg;" xmlns:xlink="&ns_xlink;" width="32.956" height="36.415"
	 viewBox="0 0 32.956 36.415" style="overflow:visible;enable-background:new 0 0 32.956 36.415;" xml:space="preserve">
<g>
	
		<radialGradient id="XMLID_5_" cx="-1.4043" cy="-0.2959" r="16.8429" gradientTransform="matrix(0.8892 0 0 0.945 15.8515 17.2959)" gradientUnits="userSpaceOnUse">
		<stop  offset="0" style="stop-color:#FFFFFF"/>
		<stop  offset="0.1147" style="stop-color:#FCF9E9"/>
		<stop  offset="0.3539" style="stop-color:#F9EEBC"/>
		<stop  offset="0.6936" style="stop-color:#F6E176"/>
		<stop  offset="1" style="stop-color:#F2D710"/>
	</radialGradient>
	<polygon style="fill:url(#XMLID_5_);" points="14.602,0.705 16.975,9.259 23.623,3.82 20.811,12.223 29.199,11.976 22.275,17.018 
		29.199,22.057 20.811,21.81 23.623,30.212 16.975,24.773 14.602,33.326 12.23,24.773 5.582,30.212 8.395,21.81 0.006,22.057 
		6.93,17.018 0.006,11.976 8.395,12.223 5.582,3.821 12.23,9.259 	"/>
	<linearGradient id="XMLID_6_" gradientUnits="userSpaceOnUse" x1="31.6055" y1="35.0195" x2="23.513" y2="26.6991">
		<stop  offset="0.0056" style="stop-color:#CED4DB"/>
		<stop  offset="0.0113" style="stop-color:#C8CFD4"/>
		<stop  offset="0.0179" style="stop-color:#B8BFC2"/>
		<stop  offset="0.0249" style="stop-color:#9FA7A7"/>
		<stop  offset="0.0322" style="stop-color:#808A87"/>
		<stop  offset="0.0397" style="stop-color:#5D6B62"/>
		<stop  offset="0.0449" style="stop-color:#44564C"/>
		<stop  offset="0.137" style="stop-color:#37473E"/>
		<stop  offset="0.258" style="stop-color:#28372F"/>
		<stop  offset="0.3847" style="stop-color:#192820"/>
		<stop  offset="0.5169" style="stop-color:#071810"/>
		<stop  offset="0.6568" style="stop-color:#010B05"/>
		<stop  offset="0.8097" style="stop-color:#000201"/>
		<stop  offset="1" style="stop-color:#000000"/>
	</linearGradient>
	<polygon style="fill:url(#XMLID_6_);stroke:#363639;stroke-width:0.25;" points="32.049,36.036 27.375,34.854 31.52,30.747 	"/>
	
		<radialGradient id="XMLID_7_" cx="-2.9009" cy="-3.9224" r="15.9601" gradientTransform="matrix(0.8892 0 0 0.945 15.8515 17.2959)" gradientUnits="userSpaceOnUse">
		<stop  offset="0.4944" style="stop-color:#FFFFFF"/>
		<stop  offset="0.5517" style="stop-color:#FFFDF8"/>
		<stop  offset="0.6199" style="stop-color:#F9F4E8"/>
		<stop  offset="0.6936" style="stop-color:#F4ECD2"/>
		<stop  offset="0.7712" style="stop-color:#F1E3B6"/>
		<stop  offset="0.8518" style="stop-color:#EAD793"/>
		<stop  offset="0.9338" style="stop-color:#E4CA6A"/>
		<stop  offset="1" style="stop-color:#DEBF3E"/>
	</radialGradient>
	<path style="fill:url(#XMLID_7_);stroke:#262D2E;stroke-width:0.75;" d="M27.066,20.747l-1.273-1.503
		c-0.785-0.928-1.775-1.538-2.834-1.841c0.531-1.421,0.832-2.965,0.832-4.586c0-6.871-5.242-12.442-11.709-12.442
		c-6.465,0-11.707,5.571-11.707,12.442c0,6.872,5.242,12.443,11.707,12.443c1.195,0,2.346-0.192,3.432-0.545
		c0.191,1.092,0.648,2.144,1.398,3.027l1.273,1.503c2.184,2.578,5.939,2.76,8.391,0.414C29.029,27.313,29.25,23.323,27.066,20.747z"
		/>
	<linearGradient id="XMLID_8_" gradientUnits="userSpaceOnUse" x1="30.3066" y1="26.1084" x2="22.1895" y2="33.9127">
		<stop  offset="0.0449" style="stop-color:#44564C"/>
		<stop  offset="0.0869" style="stop-color:#59675E"/>
		<stop  offset="0.1535" style="stop-color:#77827E"/>
		<stop  offset="0.2232" style="stop-color:#949C9B"/>
		<stop  offset="0.296" style="stop-color:#ACB3B5"/>
		<stop  offset="0.3729" style="stop-color:#BEC5CA"/>
		<stop  offset="0.4571" style="stop-color:#CAD1D7"/>
		<stop  offset="0.5618" style="stop-color:#CED4DB"/>
		<stop  offset="0.625" style="stop-color:#C8CFD4"/>
		<stop  offset="0.6982" style="stop-color:#B8BFC2"/>
		<stop  offset="0.7765" style="stop-color:#9FA7A7"/>
		<stop  offset="0.8582" style="stop-color:#808A87"/>
		<stop  offset="0.9419" style="stop-color:#5D6B62"/>
		<stop  offset="1" style="stop-color:#44564C"/>
	</linearGradient>
	<path style="fill:url(#XMLID_8_);stroke:#363639;stroke-width:0.5;" d="M32.701,28.604c-0.168,2.09-6.211,8.125-8.135,7.52
		c-1.924-0.607-5.256-5.732-5.256-5.732l8.766-8.207C28.076,22.184,32.867,26.515,32.701,28.604z"/>
	<path style="opacity:0.66;fill:#EDF1F4;" d="M30.867,24.847c-0.143,1.287-8.893,8.327-9.781,8.15
		c-0.891-0.178-0.777-0.886,0.557-1.301c1.332-0.412,6.502-4.665,7.559-6.199C30.246,23.977,30.979,23.844,30.867,24.847z"/>
	<path style="opacity:0.66;fill:#EDF1F4;" d="M32.83,28.489c0.223,1.534-6.428,8.465-8.15,7.639
		c-1.334-0.237-1.277-0.828-1.277-0.828c4.279-0.59,8.93-7.756,8.93-7.756S32.607,26.952,32.83,28.489z"/>
	<path style="opacity:0.14;fill:#FFFFFF;stroke:#000000;stroke-width:0.25;" d="M23.559,25.873l-8.41-12.518
		c0.014-0.01,0.029-0.018,0.043-0.028c0.82-0.688,0.955-1.952,0.307-2.821c-0.646-0.869-1.836-1.015-2.654-0.327
		c-0.816,0.689-0.955,1.952-0.307,2.823c0.201,0.27,0.457,0.459,0.734,0.586l-0.49,0.413c-0.063-0.27-0.178-0.528-0.35-0.761
		c-0.648-0.868-1.836-1.016-2.654-0.327c-0.818,0.69-0.955,1.953-0.305,2.823c0.646,0.868,1.836,1.015,2.652,0.325
		c0.082-0.067,0.148-0.146,0.217-0.222l9.805,11.375L23.559,25.873z"/>
	<path style="opacity:0.42;fill:#D2CDBD;" d="M10.674,23.372c-0.91-0.14-4.654-1.232-5.482-1.497
		c1.066,1.691,2.52,2.205,5.023,2.761c3.926,0.869,6.76,0.138,8.611-3.233c0.264-0.479,1.029-1.598,0.889-2.127
		C17.738,21.726,15.373,24.098,10.674,23.372z"/>
</g>
</svg>
