<?xml version="1.0" encoding="iso-8859-1"?>
<!-- Generator: Adobe Illustrator 12.0.1, SVG Export Plug-In . SVG Version: 6.00 Build 51448)  -->
<!DOCTYPE svg PUBLIC "-//W3C//DTD SVG 1.1//EN" "http://www.w3.org/Graphics/SVG/1.1/DTD/svg11.dtd" [
	<!ENTITY ns_svg "http://www.w3.org/2000/svg">
	<!ENTITY ns_xlink "http://www.w3.org/1999/xlink">
]>
<svg  version="1.1" id="&#x56FE;&#x5C42;_1" xmlns="&ns_svg;" xmlns:xlink="&ns_xlink;" width="13.651" height="11.55"
	 viewBox="0 0 13.651 11.55" style="overflow:visible;enable-background:new 0 0 13.651 11.55;" xml:space="preserve">
<g>
	<path style="fill:#764108;stroke:#442707;stroke-width:0.25;" d="M12.936,9.27c0,0,0.314,0.739-1.18,1.05
		c-1.444,0.301-8.86,1.044-9.737,1.098c-0.876,0.053-0.712-0.154-0.854-0.838C1.025,9.895,0.279,2.873,0.15,2.013
		c-0.13-0.86,0.245-1.074,0.873-0.987C10.819,2.367,12.936,9.27,12.936,9.27"/>
	<path style="fill:#FDCE12;stroke:#492407;stroke-width:0.25;" d="M13.449,8.102c-1.114-3.494-2.163-6.827-2.163-6.827
		s-0.073-0.665-0.694-0.76C9.971,0.421,1.895,0.132,1.895,0.132s-0.947-0.14-0.905,0.835C1.037,2.02,1.814,8.37,2.002,9.281
		c0.187,0.912,0.219,1.064,1.18,0.961c1.499-0.16,8.421-0.843,9.629-1.091C13.493,9.011,13.64,8.698,13.449,8.102z"/>
	<path style="fill:none;stroke:#7C4707;stroke-width:0.25;" d="M13.472,8.826c0,0-3.267-3.589-4.077-4.451"/>
	<path style="fill:none;stroke:#7C4707;stroke-width:0.25;" d="M6.002,4.438c0,0-2.35,3.825-3.618,5.749"/>
	
		<linearGradient id="XMLID_2_" gradientUnits="userSpaceOnUse" x1="948.7969" y1="-1.0996" x2="953.838" y2="3.6761" gradientTransform="matrix(-0.9661 -0.258 -0.258 0.9661 928.2361 245.9419)">
		<stop  offset="0" style="stop-color:#FFFFFF"/>
		<stop  offset="0.1032" style="stop-color:#FFFDEF"/>
		<stop  offset="0.3036" style="stop-color:#FDF9C7"/>
		<stop  offset="0.581" style="stop-color:#FBF285"/>
		<stop  offset="0.9217" style="stop-color:#F9E82C"/>
		<stop  offset="1" style="stop-color:#F8E616"/>
	</linearGradient>
	<path style="fill:url(#XMLID_2_);" d="M10.706,0.81c0,0-2.687-0.185-4.952-0.161c0,0,3.051,1.309,3.397,3.696
		c0,0,1.265-2.115,1.632-2.977C10.853,1.205,11.007,0.89,10.706,0.81z"/>
	<path style="fill:#D1720E;" d="M13.116,8.573C7.387,9.448,3.839,9.942,2.786,9.708c-0.071,0.015-0.312,0.49-0.305,0.492
		c0.055,0.025,10.813-0.754,10.854-1.386C13.343,8.823,13.235,8.681,13.116,8.573z"/>
	<path style="fill:#D1720E;" d="M1.187,0.472c0,0,0.156,0.159,0.354,0.322c0.175,3.667,1.08,8.917,1.08,8.917
		s-0.155,0.195-0.285,0.418C2.072,10.557,0.678,0.58,1.187,0.472z"/>
	<path style="fill:#D1720E;" d="M8.93,5.281C8.377,6.114,8.334,6.595,6.525,4.923c-3.038-2.81-4.097-3.482-4.98-4.151
		C1.046,0.394,1.271,0.775,1.526,1.193C2.902,2.19,5.454,4.48,7.008,5.804C8.481,7.061,8.939,5.266,8.93,5.281z"/>
	<path style="fill:none;stroke:#7C4707;stroke-width:0.25;" d="M11.084,0.875c0,0,0.082,0.093-0.156,0.712
		C10.691,2.206,9.2,4.719,8.634,5.608C8.264,6.19,7.895,6.091,7.23,5.484c-0.662-0.608-4.81-4.222-5.654-4.778
		C1.302,0.525,1.022,0.277,1.451,0.159"/>
</g>
</svg>
