<?xml version="1.0" encoding="iso-8859-1"?>
<!-- Generator: Adobe Illustrator 12.0.1, SVG Export Plug-In . SVG Version: 6.00 Build 51448)  -->
<!DOCTYPE svg PUBLIC "-//W3C//DTD SVG 1.1//EN" "http://www.w3.org/Graphics/SVG/1.1/DTD/svg11.dtd" [
	<!ENTITY ns_svg "http://www.w3.org/2000/svg">
	<!ENTITY ns_xlink "http://www.w3.org/1999/xlink">
]>
<svg  version="1.1" id="&#x56FE;&#x5C42;_1" xmlns="&ns_svg;" xmlns:xlink="&ns_xlink;" width="19.619" height="19.271"
	 viewBox="0 0 19.619 19.271" style="overflow:visible;enable-background:new 0 0 19.619 19.271;" xml:space="preserve">
<g>
	<g>
		<g>
			<radialGradient id="XMLID_3_" cx="6.1738" cy="4.8662" r="8.0372" gradientUnits="userSpaceOnUse">
				<stop  offset="0.0056" style="stop-color:#FFFFFB"/>
				<stop  offset="0.1043" style="stop-color:#EEFFFB"/>
				<stop  offset="0.2999" style="stop-color:#C2FFFC"/>
				<stop  offset="0.5741" style="stop-color:#7AFFFD"/>
				<stop  offset="0.9131" style="stop-color:#18FFFF"/>
				<stop  offset="0.9944" style="stop-color:#00FFFF"/>
			</radialGradient>
			<circle style="fill:url(#XMLID_3_);stroke:#000000;stroke-width:0.5;" cx="6.89" cy="6.89" r="6.64"/>
			
				<linearGradient id="XMLID_4_" gradientUnits="userSpaceOnUse" x1="17.3398" y1="10.3472" x2="19.5924" y2="8.0946" gradientTransform="matrix(0.8962 0.1308 0.0913 0.8808 -2.5269 4.1216)">
				<stop  offset="0.0056" style="stop-color:#C7612E"/>
				<stop  offset="0.2237" style="stop-color:#D28057"/>
				<stop  offset="0.7112" style="stop-color:#EECEBF"/>
				<stop  offset="1" style="stop-color:#FFFFFF"/>
			</linearGradient>
			<polygon style="fill:url(#XMLID_4_);stroke:#000000;stroke-width:0.5;" points="17.059,18.917 10.511,12.669 12.716,10.361 
				19.266,16.61 			"/>
		</g>
	</g>
	<path style="opacity:0.46;fill:#C7D3DD;" d="M6.892,0.449c-3.571,0-6.465,2.881-6.465,6.433c0,3.554,2.894,6.434,6.465,6.434
		c3.568,0,6.466-2.88,6.466-6.434C13.357,3.33,10.46,0.449,6.892,0.449z M6.892,12.735c-3.213,0-5.817-2.591-5.817-5.789
		c0-3.196,2.604-5.788,5.817-5.788c3.21,0,5.818,2.592,5.818,5.788C12.71,10.144,10.102,12.735,6.892,12.735z"/>
</g>
</svg>
