<?xml version="1.0" encoding="iso-8859-1"?>
<!-- Generator: Adobe Illustrator 12.0.1, SVG Export Plug-In . SVG Version: 6.00 Build 51448)  -->
<!DOCTYPE svg PUBLIC "-//W3C//DTD SVG 1.1//EN" "http://www.w3.org/Graphics/SVG/1.1/DTD/svg11.dtd" [
	<!ENTITY ns_svg "http://www.w3.org/2000/svg">
	<!ENTITY ns_xlink "http://www.w3.org/1999/xlink">
]>
<svg  version="1.1" id="&#x56FE;&#x5C42;_1" xmlns="&ns_svg;" xmlns:xlink="&ns_xlink;" width="19.563" height="21.966"
	 viewBox="0 0 19.563 21.966" style="overflow:visible;enable-background:new 0 0 19.563 21.966;" xml:space="preserve">
<g>
	<g>
		<linearGradient id="XMLID_4_" gradientUnits="userSpaceOnUse" x1="11.0635" y1="20.4976" x2="11.0635" y2="3.2472">
			<stop  offset="0" style="stop-color:#FFFFFF"/>
			<stop  offset="0.3942" style="stop-color:#D3D4D4"/>
			<stop  offset="0.7201" style="stop-color:#B5B7B8"/>
			<stop  offset="0.9045" style="stop-color:#AAACAD"/>
		</linearGradient>
		<polygon style="fill:url(#XMLID_4_);stroke:#000000;" points="12.886,0.5 3.063,0.5 3.063,21.125 19.063,21.125 19.063,6.228 		
			"/>
		<linearGradient id="XMLID_5_" gradientUnits="userSpaceOnUse" x1="4.1572" y1="20.6851" x2="4.1572" y2="3.4347">
			<stop  offset="0" style="stop-color:#FFFFFF"/>
			<stop  offset="0.3942" style="stop-color:#D3D4D4"/>
			<stop  offset="0.7201" style="stop-color:#B5B7B8"/>
			<stop  offset="0.9045" style="stop-color:#AAACAD"/>
		</linearGradient>
		<polygon style="opacity:0.46;fill:url(#XMLID_5_);" points="4.813,0.75 3.501,0.688 3.501,21.313 4.813,21.313 		"/>
		<polygon style="fill:#919191;" points="18.556,20.657 18.646,19.31 3.595,19.344 3.595,20.657 		"/>
		<linearGradient id="XMLID_6_" gradientUnits="userSpaceOnUse" x1="18.4072" y1="20.979" x2="18.4072" y2="8.3802">
			<stop  offset="0" style="stop-color:#FFFFFF"/>
			<stop  offset="0.3942" style="stop-color:#D3D4D4"/>
			<stop  offset="0.7201" style="stop-color:#B5B7B8"/>
			<stop  offset="0.9045" style="stop-color:#AAACAD"/>
		</linearGradient>
		<polygon style="fill:url(#XMLID_6_);" points="19.063,6.421 17.751,6.375 17.751,21.438 19.063,21.438 		"/>
		<rect x="3.56" y="0.999" style="fill:#E0E2E1;" width="9.213" height="0.75"/>
		<polygon style="fill:#FFFFFF;stroke:#757575;stroke-width:0.75;" points="18.187,6.498 12.374,1.122 12.249,6.81 		"/>
	</g>
	<polygon style="fill:#00FF00;stroke:#0A0000;stroke-width:0.5;" points="9.063,16.091 5.875,16.091 5.875,12.904 3.438,12.904 
		3.438,16.091 0.25,16.091 0.25,18.529 3.438,18.529 3.438,21.716 5.875,21.716 5.875,18.529 9.063,18.529 	"/>
</g>
</svg>
