/* XPM */
static const char * const qpe_accept_xpm[] = {
"16 16 3 1",
"       c None",
".      c #FFFFFF",
"+      c #000000",
"                ",
"                ",
"      .....     ",
"    ..+++++..   ",
"   .+++++++++.  ",
"   .+++++++++.  ",
"  .+++++++..++. ",
"  .++.+++...++. ",
"  .+...+...+++. ",
"  .+......++++. ",
"  .++....+++++. ",
"   .++..+++++.  ",
"   .+++++++++.  ",
"    ..+++++..   ",
"      .....     ",
"                "};
