<?xml version="1.0" encoding="iso-8859-1"?>
<!-- Generator: Adobe Illustrator 12.0.1, SVG Export Plug-In . SVG Version: 6.00 Build 51448)  -->
<!DOCTYPE svg PUBLIC "-//W3C//DTD SVG 1.1//EN" "http://www.w3.org/Graphics/SVG/1.1/DTD/svg11.dtd" [
	<!ENTITY ns_svg "http://www.w3.org/2000/svg">
	<!ENTITY ns_xlink "http://www.w3.org/1999/xlink">
]>
<svg  version="1.1" id="&#xCD;_xBC__xB2_&#xE3;_x5F_1" xmlns="&ns_svg;" xmlns:xlink="&ns_xlink;" width="27.697" height="27.869"
	 viewBox="0 0 27.697 27.869" style="overflow:visible;enable-background:new 0 0 27.697 27.869;" xml:space="preserve">
<g>
	
		<linearGradient id="XMLID_8_" gradientUnits="userSpaceOnUse" x1="-7.7344" y1="-46.0005" x2="-3.887" y2="-47.6138" gradientTransform="matrix(0.9968 -0.0791 0.0791 0.9968 18.8601 62.4321)">
		<stop  offset="0.0056" style="stop-color:#424242"/>
		<stop  offset="0.3202" style="stop-color:#FFFFFF"/>
		<stop  offset="0.736" style="stop-color:#CCCCCC"/>
		<stop  offset="1" style="stop-color:#424242"/>
	</linearGradient>
	<path style="fill:url(#XMLID_8_);stroke:#010101;stroke-width:0.25;" d="M2.783,7.722c0,0,8.268,17.184,9.844,19.262
		c1.579,2.078,8.031-0.472,8.516-3.253C21.631,20.947,9.36,2.043,9.36,2.043S7.49,2.031,6.62,2.558
		C5.99,2.936,3.988,4.049,3.728,4.445C3.469,4.839,2.783,7.722,2.783,7.722z"/>
	
		<linearGradient id="XMLID_9_" gradientUnits="userSpaceOnUse" x1="-8.2329" y1="-48.5493" x2="5.3984" y2="-48.5493" gradientTransform="matrix(0.9968 -0.0791 0.0791 0.9968 18.8601 62.4321)">
		<stop  offset="0.1067" style="stop-color:#ECECEC"/>
		<stop  offset="0.3202" style="stop-color:#FFFFFF"/>
		<stop  offset="0.736" style="stop-color:#CCCCCC"/>
		<stop  offset="1" style="stop-color:#424242"/>
	</linearGradient>
	<path style="fill:url(#XMLID_9_);stroke:#010101;stroke-width:0.25;" d="M6.267,2.872c0,0,0.933-0.822,2.569-1.163
		c1.635-0.336,2.618-0.537,3.57,0.467c0.957,1.006,5.268,10.311,7.115,14.736c0,0,2.502,5.835,1.276,7.679
		c-1.228,1.842-3.541,3.066-4.876,1.468c-1.33-1.601-8.154-17.946-8.969-19.835C6.139,4.335,5.52,3.427,6.267,2.872z"/>
	<path style="fill:#525252;" d="M3.898,4.35c0,0,1.92-1.359,3.043-1.864C8.067,1.979,5.721,2.631,6.15,3.961
		c0.356,1.1,8.957,20.206,9.504,21.324c0.547,1.125,1.832,1.604,2.76,1.238c0,0-1.075,0.585-1.446,0.654
		c-0.368,0.073-1.641-0.785-2.253-2.188C14.104,23.582,7.758,8.575,7.289,7.905S6.766,6.034,4.797,6.356
		C2.825,6.679,4.107,4.375,3.898,4.35z"/>
	
		<linearGradient id="XMLID_10_" gradientUnits="userSpaceOnUse" x1="-6.687" y1="-51.1489" x2="4.2153" y2="-51.1489" gradientTransform="matrix(0.9968 -0.0791 0.0791 0.9968 18.8601 62.4321)">
		<stop  offset="0" style="stop-color:#F3E755"/>
		<stop  offset="0.9831" style="stop-color:#F2B71B"/>
	</linearGradient>
	<path style="fill:url(#XMLID_10_);stroke:#010101;stroke-width:0.25;" d="M7.877,5.902C7.518,4.973,7.205,4.213,8.795,3.795
		c1.589-0.417,3.732-1.109,4.188-0.538c0.968,1.209,5.768,10.989,6.465,13.787c0.22,0.87-0.024,1.248-0.972,1.363
		c-0.588,0.076-0.967-0.128-1.725,0.807c-0.757,0.931-1.948,1.109-2.555,0.284C13.141,18.059,8.24,6.83,7.877,5.902z"/>
	
		<linearGradient id="XMLID_11_" gradientUnits="userSpaceOnUse" x1="-31.6304" y1="-39.6387" x2="-29.4815" y2="-40.6304" gradientTransform="matrix(0.9023 0.0193 -0.0158 0.7697 29.4096 35.0367)">
		<stop  offset="0.0056" style="stop-color:#4F4F4F"/>
		<stop  offset="0.3202" style="stop-color:#FFFFFF"/>
		<stop  offset="0.736" style="stop-color:#CCCCCC"/>
		<stop  offset="1" style="stop-color:#424242"/>
	</linearGradient>
	<path style="fill:url(#XMLID_11_);stroke:#010101;stroke-width:0.25;" d="M0.191,1.562c0,0-0.305-0.558,0.393-0.945
		c0.18-0.101,0.17-0.095,0.627-0.286c0.307-0.128,0.92-0.11,1.275,0.582c0.346,0.67,2.195,4.322,2.195,4.322
		s0.286,0.679-0.398,1.176C3.602,6.905,3.146,7.055,2.852,6.887C2.558,6.724,0.191,1.562,0.191,1.562z"/>
	<path style="fill:#97C63D;stroke:#010101;stroke-width:0.25;stroke-linecap:round;stroke-linejoin:round;" d="M9.04,6.393
		c0,0,3.337-0.931,4.264-1.295l4.602,9.782l-3.925,1.894L9.04,6.393z"/>
</g>
<g>
	
		<linearGradient id="XMLID_12_" gradientUnits="userSpaceOnUse" x1="37.4863" y1="-6.5308" x2="37.4863" y2="-3.3809" gradientTransform="matrix(4.489659e-011 -1 1 4.489659e-011 25.1958 40.1987)">
		<stop  offset="0" style="stop-color:#FFFFFF"/>
		<stop  offset="0.191" style="stop-color:#F1F0EF"/>
		<stop  offset="0.7472" style="stop-color:#D3D2D1"/>
		<stop  offset="0.8395" style="stop-color:#6F6D6D"/>
		<stop  offset="0.9167" style="stop-color:#393737"/>
		<stop  offset="0.972" style="stop-color:#181818"/>
		<stop  offset="1" style="stop-color:#070808"/>
	</linearGradient>
	<rect x="18.665" y="0.125" style="fill:url(#XMLID_12_);stroke:#000000;stroke-width:0.25;" width="3.15" height="5.175"/>
	<linearGradient id="XMLID_13_" gradientUnits="userSpaceOnUse" x1="18.9473" y1="5.939" x2="18.9473" y2="8.564">
		<stop  offset="0" style="stop-color:#FFFFFF"/>
		<stop  offset="0.191" style="stop-color:#F1F0EF"/>
		<stop  offset="0.7472" style="stop-color:#D3D2D1"/>
		<stop  offset="0.8395" style="stop-color:#6F6D6D"/>
		<stop  offset="0.9167" style="stop-color:#393737"/>
		<stop  offset="0.972" style="stop-color:#181818"/>
		<stop  offset="1" style="stop-color:#070808"/>
	</linearGradient>
	<rect x="10.322" y="5.939" style="fill:url(#XMLID_13_);stroke:#000000;stroke-width:0.25;" width="17.25" height="2.625"/>
	<linearGradient id="XMLID_14_" gradientUnits="userSpaceOnUse" x1="16.9648" y1="7.0679" x2="23.3652" y2="7.0679">
		<stop  offset="0" style="stop-color:#F6EB13"/>
		<stop  offset="0.3993" style="stop-color:#E5CE23"/>
		<stop  offset="0.7723" style="stop-color:#D9BA28"/>
		<stop  offset="1" style="stop-color:#D6B329"/>
	</linearGradient>
	<rect x="16.965" y="4.923" style="fill:url(#XMLID_14_);stroke:#000000;stroke-width:0.75;" width="6.4" height="4.289"/>
</g>
</svg>
