/* XPM */
static const char * worried_xpm[] = {
"20 20 3 1",
" 	c None",
".	c #ffff3f",
"#	c #000000",
"                    ",
"       ######       ",
"     ##......##     ",
"    #..........#    ",
"   #............#   ",
"  #..............#  ",
"  #..............#  ",
" #....##....##....# ",
" #....##....##....# ",
" #................# ",
" #................# ",
" #................# ",
" #................# ",
"  #....######....#  ",
"  #..............#  ",
"   #............#   ",
"    #..........#    ",
"     ##......##     ",
"       ######       ",
"                    "};
