<?xml version="1.0" encoding="iso-8859-1"?>
<!-- Generator: Adobe Illustrator 12.0.1, SVG Export Plug-In . SVG Version: 6.00 Build 51448)  -->
<!DOCTYPE svg PUBLIC "-//W3C//DTD SVG 1.1//EN" "http://www.w3.org/Graphics/SVG/1.1/DTD/svg11.dtd" [
	<!ENTITY ns_svg "http://www.w3.org/2000/svg">
	<!ENTITY ns_xlink "http://www.w3.org/1999/xlink">
]>
<svg  version="1.1" id="&#xCD;_xBC__xB2_&#xE3;_x5F_1" xmlns="&ns_svg;" xmlns:xlink="&ns_xlink;" width="19.093" height="19.347"
	 viewBox="0 0 19.093 19.347" style="overflow:visible;enable-background:new 0 0 19.093 19.347;" xml:space="preserve">
<g>
	<g>
		<rect x="4.479" y="5.936" style="fill:#7D8489;stroke:#000000;stroke-width:0.25;" width="7.238" height="0.361"/>
		<rect x="0.125" y="6.817" style="fill:#C58C2D;stroke:#69493E;stroke-width:0.25;" width="16.302" height="12.404"/>
		<linearGradient id="XMLID_5_" gradientUnits="userSpaceOnUse" x1="8.2593" y1="14.8018" x2="8.2593" y2="12.7719">
			<stop  offset="0" style="stop-color:#CDCED0"/>
			<stop  offset="0.1397" style="stop-color:#ABADB0"/>
			<stop  offset="0.3546" style="stop-color:#808284"/>
			<stop  offset="0.554" style="stop-color:#5E5F61"/>
			<stop  offset="0.7316" style="stop-color:#414142"/>
			<stop  offset="0.8806" style="stop-color:#1A1A1A"/>
			<stop  offset="0.9831" style="stop-color:#000000"/>
		</linearGradient>
		<path style="fill:url(#XMLID_5_);" d="M16.328,12.907c0,0-0.538,1.397-1.658,1.623c0,0-12.652,0.046-12.527,0
			c-1.661-0.09-1.952-1.623-1.952-1.623V7.448h16.138V12.907z"/>
		<path style="fill:#C58C2D;stroke:#69493E;stroke-width:0.25;" d="M16.313,12.276c0,0-0.536,1.398-1.659,1.621
			c0,0-12.652,0.047-12.525,0c-1.661-0.089-1.952-1.623-1.952-1.623V6.817h16.135V12.276z"/>
		<polygon style="fill:#D4DADF;stroke:#696A6C;stroke-width:0.25;" points="8.89,14.515 8.612,15.552 7.588,15.552 7.367,14.484 
			7.341,12.981 8.89,12.981 		"/>
		<rect x="7.59" y="13.763" style="fill:#A6ACB3;stroke:#000000;stroke-width:0.25;" width="1.05" height="0.573"/>
		<linearGradient id="XMLID_6_" gradientUnits="userSpaceOnUse" x1="14.0947" y1="12.7422" x2="14.0947" y2="12.6258">
			<stop  offset="0" style="stop-color:#CDCED0"/>
			<stop  offset="0.1397" style="stop-color:#ABADB0"/>
			<stop  offset="0.3546" style="stop-color:#808284"/>
			<stop  offset="0.554" style="stop-color:#5E5F61"/>
			<stop  offset="0.7316" style="stop-color:#414142"/>
			<stop  offset="0.8806" style="stop-color:#1A1A1A"/>
			<stop  offset="0.9831" style="stop-color:#000000"/>
		</linearGradient>
		<rect x="13.244" y="12.32" style="fill:url(#XMLID_6_);" width="1.701" height="0.407"/>
		<path style="fill:#A2A8AF;stroke:#363639;stroke-width:0.25;" d="M4.575,6.638H2.626C3.538,5.253,4.56,5.435,4.56,5.435
			L4.575,6.638z"/>
		<path style="fill:#FFFFFF;" d="M4.477,5.653L4.473,5.435c0,0-0.84-0.289-1.752,1.094h0.339C3.702,5.695,4.179,5.662,4.477,5.653z"
			/>
		<path style="fill:#A2A8AF;stroke:#363639;stroke-width:0.25;" d="M11.793,6.62l1.95-0.013c-1.018-1.413-1.941-1.19-1.941-1.19
			L11.793,6.62z"/>
		<path style="fill:#FFFFFF;" d="M13.352,6.507l0.331-0.002c-1.018-1.414-1.812-1.068-1.812-1.068l-0.002,0.188
			C12.155,5.632,12.656,5.649,13.352,6.507z"/>
		<rect x="0.219" y="6.817" style="fill:#FFFFFF;" width="16.067" height="0.3"/>
	</g>
	<rect x="7.483" y="13.027" style="fill:#FFFFFF;" width="1.256" height="0.192"/>
</g>
<g>
	<linearGradient id="XMLID_7_" gradientUnits="userSpaceOnUse" x1="11.2241" y1="0.5" x2="11.2241" y2="12.8008">
		<stop  offset="0.0056" style="stop-color:#DADCE1"/>
		<stop  offset="0.1573" style="stop-color:#DADCE1"/>
		<stop  offset="0.1868" style="stop-color:#D2D5DA"/>
		<stop  offset="0.2676" style="stop-color:#C7CACF"/>
		<stop  offset="0.3811" style="stop-color:#C0C4CA"/>
		<stop  offset="0.6966" style="stop-color:#BEC2C9"/>
		<stop  offset="0.7547" style="stop-color:#B6BAC0"/>
		<stop  offset="0.8316" style="stop-color:#A0A6AB"/>
		<stop  offset="0.9188" style="stop-color:#81888C"/>
		<stop  offset="0.9831" style="stop-color:#687073"/>
	</linearGradient>
	<polygon style="fill:url(#XMLID_7_);stroke:#363639;" points="11.439,0.5 6.602,0.5 6.602,12.801 15.846,12.801 15.846,5.208 	"/>
	<linearGradient id="XMLID_8_" gradientUnits="userSpaceOnUse" x1="11.5161" y1="10.3008" x2="11.5161" y2="15.0015">
		<stop  offset="0.0056" style="stop-color:#DADCE1"/>
		<stop  offset="0.1573" style="stop-color:#DADCE1"/>
		<stop  offset="0.1868" style="stop-color:#D2D5DA"/>
		<stop  offset="0.2676" style="stop-color:#C7CACF"/>
		<stop  offset="0.3811" style="stop-color:#C0C4CA"/>
		<stop  offset="0.6966" style="stop-color:#BEC2C9"/>
		<stop  offset="0.7547" style="stop-color:#B6BAC0"/>
		<stop  offset="0.8316" style="stop-color:#A0A6AB"/>
		<stop  offset="0.9188" style="stop-color:#81888C"/>
		<stop  offset="0.9831" style="stop-color:#687073"/>
	</linearGradient>
	<polygon style="fill:url(#XMLID_8_);stroke:#262D2E;stroke-width:0.75;" points="18.715,16.051 4.371,16.051 4.317,9.7 18.662,9.7 
			"/>
	<rect x="14.465" y="10.9" style="fill:#3EB549;" width="0.85" height="0.7"/>
	<rect x="15.315" y="10.9" style="fill:#EA2F2E;" width="0.85" height="0.7"/>
	<polygon style="fill:#FFFFFF;stroke:#A2A9B0;stroke-width:0.5;" points="15.722,5.268 11.472,5.268 11.649,1.018 	"/>
</g>
</svg>
