<?xml version="1.0" encoding="iso-8859-1"?>
<!-- Generator: Adobe Illustrator 12.0.1, SVG Export Plug-In . SVG Version: 6.00 Build 51448)  -->
<!DOCTYPE svg PUBLIC "-//W3C//DTD SVG 1.1//EN" "http://www.w3.org/Graphics/SVG/1.1/DTD/svg11.dtd" [
	<!ENTITY ns_svg "http://www.w3.org/2000/svg">
	<!ENTITY ns_xlink "http://www.w3.org/1999/xlink">
]>
<svg  version="1.1" id="&#xCD;_xBC__xB2_&#xE3;_x5F_1" xmlns="&ns_svg;" xmlns:xlink="&ns_xlink;" width="19.202" height="19.368"
	 viewBox="0 0 19.202 19.368" style="overflow:visible;enable-background:new 0 0 19.202 19.368;" xml:space="preserve">
<g>
	<g>
		<rect x="4.479" y="5.957" style="fill:#7D8489;stroke:#000000;stroke-width:0.25;" width="7.238" height="0.361"/>
		<rect x="0.125" y="6.839" style="fill:#C58C2D;stroke:#69493E;stroke-width:0.25;" width="16.302" height="12.404"/>
		<linearGradient id="XMLID_3_" gradientUnits="userSpaceOnUse" x1="8.2593" y1="14.8232" x2="8.2593" y2="12.7933">
			<stop  offset="0" style="stop-color:#CDCED0"/>
			<stop  offset="0.1397" style="stop-color:#ABADB0"/>
			<stop  offset="0.3546" style="stop-color:#808284"/>
			<stop  offset="0.554" style="stop-color:#5E5F61"/>
			<stop  offset="0.7316" style="stop-color:#414142"/>
			<stop  offset="0.8806" style="stop-color:#1A1A1A"/>
			<stop  offset="0.9831" style="stop-color:#000000"/>
		</linearGradient>
		<path style="fill:url(#XMLID_3_);" d="M16.328,12.929c0,0-0.538,1.397-1.658,1.623c0,0-12.652,0.046-12.527,0
			c-1.661-0.09-1.952-1.623-1.952-1.623V7.47h16.138V12.929z"/>
		<path style="fill:#C58C2D;stroke:#69493E;stroke-width:0.25;" d="M16.313,12.298c0,0-0.536,1.398-1.659,1.621
			c0,0-12.652,0.047-12.525,0c-1.661-0.089-1.952-1.623-1.952-1.623V6.839h16.135V12.298z"/>
		<polygon style="fill:#D4DADF;stroke:#696A6C;stroke-width:0.25;" points="8.89,14.536 8.612,15.573 7.588,15.573 7.367,14.506 
			7.341,13.003 8.89,13.003 		"/>
		<rect x="7.59" y="13.784" style="fill:#A6ACB3;stroke:#000000;stroke-width:0.25;" width="1.05" height="0.573"/>
		<path style="fill:#A2A8AF;stroke:#363639;stroke-width:0.25;" d="M4.575,6.659H2.626C3.538,5.274,4.56,5.456,4.56,5.456
			L4.575,6.659z"/>
		<path style="fill:#FFFFFF;" d="M4.477,5.675L4.473,5.456c0,0-0.84-0.289-1.752,1.094h0.339C3.702,5.717,4.179,5.684,4.477,5.675z"
			/>
		<path style="fill:#FFFFFF;" d="M13.352,6.528l0.331-0.002c-1.018-1.414-1.812-1.068-1.812-1.068l-0.002,0.188
			C12.155,5.653,12.656,5.671,13.352,6.528z"/>
		<rect x="0.219" y="6.839" style="fill:#FFFFFF;" width="16.067" height="0.3"/>
	</g>
	<rect x="7.483" y="13.049" style="fill:#FFFFFF;" width="1.256" height="0.192"/>
</g>
<g>
	<rect x="17.293" y="0.25" style="fill:#89CFF2;stroke:#1A2120;stroke-width:0.5;" width="1.34" height="1.779"/>
	<rect x="9.708" y="2.032" style="fill:#A9AFB6;stroke:#141314;stroke-width:0.5;" width="9.244" height="12.932"/>
	<rect x="16.784" y="13.585" style="fill:#81898E;" width="1.1" height="0.894"/>
	<rect x="13.438" y="13.648" style="fill:#81898E;" width="1.1" height="0.894"/>
	<g>
		<linearGradient id="XMLID_4_" gradientUnits="userSpaceOnUse" x1="14.3501" y1="13.3262" x2="14.3501" y2="3.6318">
			<stop  offset="0" style="stop-color:#32A048"/>
			<stop  offset="1" style="stop-color:#1F3F1C"/>
		</linearGradient>
		<rect x="10.961" y="3.632" style="fill:url(#XMLID_4_);" width="6.777" height="9.694"/>
	</g>
	<rect x="11.769" y="6.242" style="fill:#71C172;" width="3" height="0.333"/>
	<rect x="12.811" y="7.908" style="fill:#71C172;" width="3.833" height="0.334"/>
	<rect x="12.228" y="9.658" style="fill:#71C172;" width="3.875" height="0.417"/>
</g>
</svg>
