<?xml version="1.0" encoding="iso-8859-1"?>
<!-- Generator: Adobe Illustrator 12.0.1, SVG Export Plug-In . SVG Version: 6.00 Build 51448)  -->
<!DOCTYPE svg PUBLIC "-//W3C//DTD SVG 1.1//EN" "http://www.w3.org/Graphics/SVG/1.1/DTD/svg11.dtd" [
	<!ENTITY ns_svg "http://www.w3.org/2000/svg">
	<!ENTITY ns_xlink "http://www.w3.org/1999/xlink">
]>
<svg  version="1.1" id="&#xCD;_xBC__xB2_&#xE3;_x5F_1" xmlns="&ns_svg;" xmlns:xlink="&ns_xlink;" width="19.391" height="19.246"
	 viewBox="0 0 19.391 19.246" style="overflow:visible;enable-background:new 0 0 19.391 19.246;" xml:space="preserve">
<g>
	<g>
		<rect x="4.479" y="5.835" style="fill:#7D8489;stroke:#000000;stroke-width:0.25;" width="7.238" height="0.361"/>
		<rect x="0.125" y="6.717" style="fill:#C58C2D;stroke:#69493E;stroke-width:0.25;" width="16.302" height="12.404"/>
		<linearGradient id="XMLID_9_" gradientUnits="userSpaceOnUse" x1="8.2593" y1="14.7007" x2="8.2593" y2="12.6708">
			<stop  offset="0" style="stop-color:#CDCED0"/>
			<stop  offset="0.1397" style="stop-color:#ABADB0"/>
			<stop  offset="0.3546" style="stop-color:#808284"/>
			<stop  offset="0.554" style="stop-color:#5E5F61"/>
			<stop  offset="0.7316" style="stop-color:#414142"/>
			<stop  offset="0.8806" style="stop-color:#1A1A1A"/>
			<stop  offset="0.9831" style="stop-color:#000000"/>
		</linearGradient>
		<path style="fill:url(#XMLID_9_);" d="M16.328,12.807c0,0-0.538,1.397-1.658,1.623c0,0-12.652,0.046-12.527,0
			c-1.661-0.09-1.952-1.623-1.952-1.623V7.348h16.138V12.807z"/>
		<path style="fill:#C58C2D;stroke:#69493E;stroke-width:0.25;" d="M16.313,12.176c0,0-0.536,1.398-1.659,1.621
			c0,0-12.652,0.047-12.525,0c-1.661-0.089-1.952-1.623-1.952-1.623V6.717h16.135V12.176z"/>
		<polygon style="fill:#D4DADF;stroke:#696A6C;stroke-width:0.25;" points="8.89,14.414 8.612,15.451 7.588,15.451 7.367,14.384 
			7.341,12.881 8.89,12.881 		"/>
		<rect x="7.59" y="13.662" style="fill:#A6ACB3;stroke:#000000;stroke-width:0.25;" width="1.05" height="0.573"/>
		<linearGradient id="XMLID_10_" gradientUnits="userSpaceOnUse" x1="14.0947" y1="12.6411" x2="14.0947" y2="12.5247">
			<stop  offset="0" style="stop-color:#CDCED0"/>
			<stop  offset="0.1397" style="stop-color:#ABADB0"/>
			<stop  offset="0.3546" style="stop-color:#808284"/>
			<stop  offset="0.554" style="stop-color:#5E5F61"/>
			<stop  offset="0.7316" style="stop-color:#414142"/>
			<stop  offset="0.8806" style="stop-color:#1A1A1A"/>
			<stop  offset="0.9831" style="stop-color:#000000"/>
		</linearGradient>
		<rect x="13.244" y="12.22" style="fill:url(#XMLID_10_);" width="1.701" height="0.407"/>
		<path style="fill:#A2A8AF;stroke:#363639;stroke-width:0.25;" d="M4.575,6.537H2.626C3.538,5.152,4.56,5.334,4.56,5.334
			L4.575,6.537z"/>
		<path style="fill:#FFFFFF;" d="M4.477,5.553L4.473,5.334c0,0-0.84-0.289-1.752,1.094h0.339C3.702,5.595,4.179,5.562,4.477,5.553z"
			/>
		<path style="fill:#A2A8AF;stroke:#363639;stroke-width:0.25;" d="M11.793,6.52l1.95-0.013c-1.018-1.413-1.941-1.19-1.941-1.19
			L11.793,6.52z"/>
		<path style="fill:#FFFFFF;" d="M13.352,6.406l0.331-0.002C12.665,4.99,11.87,5.336,11.87,5.336l-0.002,0.188
			C12.155,5.531,12.656,5.549,13.352,6.406z"/>
		<rect x="0.219" y="6.717" style="fill:#FFFFFF;" width="16.067" height="0.3"/>
	</g>
	<rect x="7.483" y="12.927" style="fill:#FFFFFF;" width="1.256" height="0.192"/>
</g>
<ellipse style="fill:#FFFFFF;" cx="15.878" cy="13.65" rx="0.453" ry="0.375"/>
<g>
	<linearGradient id="XMLID_11_" gradientUnits="userSpaceOnUse" x1="10.7065" y1="3.0703" x2="10.7065" y2="5.0157">
		<stop  offset="0" style="stop-color:#F0F0F0"/>
		<stop  offset="1" style="stop-color:#9E9E9E"/>
	</linearGradient>
	<polygon style="fill:url(#XMLID_11_);stroke:#000000;stroke-width:0.25;" points="12.928,3.004 11.514,3.004 11.514,4.5 9.899,4.5 
		9.899,3.004 8.485,3.004 8.485,5.662 12.928,5.662 	"/>
	<g>
		<linearGradient id="XMLID_12_" gradientUnits="userSpaceOnUse" x1="11.1025" y1="5.6616" x2="11.1025" y2="13.4116">
			<stop  offset="0" style="stop-color:#D6D6D6"/>
			<stop  offset="1" style="stop-color:#6B6B6B"/>
		</linearGradient>
		<polygon style="fill:url(#XMLID_12_);stroke:#070707;stroke-width:0.25;" points="18.899,10.707 18.899,13.439 3.306,13.51 
			3.323,10.725 6.946,5.822 14.709,5.822 		"/>
		<linearGradient id="XMLID_13_" gradientUnits="userSpaceOnUse" x1="9.3418" y1="9.041" x2="13.6333" y2="9.041">
			<stop  offset="0" style="stop-color:#D6D6D6"/>
			<stop  offset="1" style="stop-color:#6B6B6B"/>
		</linearGradient>
		<path style="fill:url(#XMLID_13_);" d="M14.208,8.614c-0.303-1.153-1.79-1.947-3.366-1.947S7.779,7.461,7.476,8.614
			c-0.371,1.408,1.099,2.801,3.366,2.801C13.108,11.415,14.579,10.022,14.208,8.614z M10.746,6.8c0.169,0,0.309,0.089,0.311,0.202
			c0.002,0.114-0.139,0.208-0.314,0.208s-0.315-0.094-0.311-0.208C10.436,6.889,10.577,6.8,10.746,6.8z M7.964,8.727
			c-0.199,0-0.33-0.122-0.293-0.267c0.036-0.145,0.22-0.259,0.41-0.259c0.191,0,0.324,0.114,0.296,0.259S8.163,8.727,7.964,8.727z
			 M8.588,10.103c-0.22,0-0.372-0.147-0.339-0.326c0.033-0.176,0.229-0.313,0.439-0.313S9.053,9.601,9.03,9.776
			C9.007,9.955,8.808,10.103,8.588,10.103z M9.161,7.696c-0.183,0-0.314-0.102-0.293-0.227c0.021-0.121,0.18-0.218,0.356-0.218
			S9.533,7.349,9.519,7.47C9.505,7.595,9.344,7.696,9.161,7.696z M10.708,11.042c-0.234,0-0.419-0.169-0.412-0.369
			c0.007-0.198,0.195-0.357,0.418-0.357s0.409,0.159,0.412,0.357C11.131,10.873,10.943,11.042,10.708,11.042z M12.05,7.551
			c-0.013-0.124,0.122-0.222,0.299-0.222c0.177,0,0.337,0.098,0.357,0.222c0.02,0.126-0.114,0.229-0.298,0.229
			C12.224,7.78,12.063,7.677,12.05,7.551z M12.957,10.411c-0.225,0-0.426-0.155-0.448-0.34c-0.021-0.183,0.137-0.328,0.351-0.328
			s0.415,0.146,0.446,0.328C13.338,10.256,13.182,10.411,12.957,10.411z M13.592,8.901c-0.202,0-0.388-0.123-0.416-0.273
			c-0.027-0.148,0.109-0.264,0.302-0.264s0.378,0.115,0.414,0.264C13.928,8.778,13.793,8.901,13.592,8.901z"/>
		<linearGradient id="XMLID_14_" gradientUnits="userSpaceOnUse" x1="9.373" y1="8.3896" x2="13.6645" y2="8.3896">
			<stop  offset="0" style="stop-color:#D6D6D6"/>
			<stop  offset="1" style="stop-color:#6B6B6B"/>
		</linearGradient>
		<path style="fill:url(#XMLID_14_);stroke:#6D6F71;stroke-width:0.25;" d="M14.239,7.962c-0.303-1.153-1.79-1.947-3.366-1.947
			S7.811,6.81,7.507,7.962c-0.371,1.409,1.099,2.801,3.366,2.801C13.14,10.764,14.61,9.371,14.239,7.962z M10.777,6.149
			c0.169,0,0.309,0.088,0.311,0.202c0.002,0.115-0.139,0.208-0.314,0.208s-0.315-0.093-0.311-0.208
			C10.467,6.237,10.608,6.149,10.777,6.149z M7.995,8.075c-0.199,0-0.33-0.123-0.293-0.267c0.036-0.144,0.22-0.258,0.41-0.258
			c0.191,0,0.324,0.115,0.296,0.258C8.38,7.953,8.194,8.075,7.995,8.075z M8.62,9.451c-0.22,0-0.372-0.147-0.339-0.326
			C8.313,8.95,8.51,8.812,8.72,8.812S9.084,8.95,9.061,9.125C9.038,9.304,8.839,9.451,8.62,9.451z M9.192,7.045
			c-0.183,0-0.314-0.102-0.293-0.226C8.92,6.697,9.08,6.601,9.255,6.601S9.564,6.697,9.55,6.819
			C9.536,6.943,9.375,7.045,9.192,7.045z M10.74,10.391c-0.234,0-0.419-0.169-0.412-0.369c0.007-0.198,0.195-0.357,0.418-0.357
			s0.409,0.159,0.412,0.357C11.162,10.222,10.974,10.391,10.74,10.391z M12.082,6.899c-0.013-0.125,0.122-0.222,0.299-0.222
			c0.177,0,0.337,0.097,0.357,0.222c0.02,0.126-0.114,0.229-0.298,0.229C12.255,7.129,12.095,7.026,12.082,6.899z M12.988,9.76
			c-0.225,0-0.426-0.155-0.448-0.34c-0.021-0.182,0.137-0.328,0.351-0.328s0.415,0.146,0.446,0.328
			C13.37,9.604,13.213,9.76,12.988,9.76z M13.624,8.25c-0.202,0-0.388-0.123-0.416-0.274c-0.027-0.148,0.109-0.264,0.302-0.264
			s0.378,0.116,0.414,0.264C13.959,8.127,13.825,8.25,13.624,8.25z"/>
		<linearGradient id="XMLID_15_" gradientUnits="userSpaceOnUse" x1="11.0713" y1="0.7031" x2="11.0713" y2="4.8284">
			<stop  offset="0" style="stop-color:#F0F0F0"/>
			<stop  offset="1" style="stop-color:#9E9E9E"/>
		</linearGradient>
		<path style="fill:url(#XMLID_15_);stroke:#000000;stroke-width:0.25;" d="M15.306,0.125L6.337,0.207
			c-3.714,0.33-3.623,4.5-3.339,5.121c0.667,1.459,3.6,1.597,4.296,0.269C7.562,5.086,7.66,4.419,7.498,3.62
			c-0.133-0.658,6.823-0.662,6.785,0.026c-0.042,0.754,0.042,1.518,0.257,1.89c0.917,1.584,3.534,0.605,4.042,0.334
			C19.832,5.203,19.707,0.328,15.306,0.125z"/>
	</g>
	<linearGradient id="XMLID_16_" gradientUnits="userSpaceOnUse" x1="11.1157" y1="2.8252" x2="11.1157" y2="5.4795">
		<stop  offset="0" style="stop-color:#D6D6D6"/>
		<stop  offset="1" style="stop-color:#6B6B6B"/>
	</linearGradient>
	<path style="opacity:0.67;fill:url(#XMLID_16_);" d="M19.227,4.203c0,0-1.875,2.131-3.313,0.922
		c-0.531-0.446-0.338-1.78-0.448-2.046c-0.015-0.036-0.283-0.626-0.49-0.626H6.508c-0.207,0-0.618,0.679-0.641,0.734
		C5.758,3.453,6.336,5.194,5.805,5.641C4.368,6.85,2.961,4.875,2.961,4.875s0.141,1.422,1.844,1.656
		c0.542,0.074,3.422,0.281,2.719-2.953l0.97-0.375h4.954l0.686,0.219c0.016,3.234,2.298,3.075,2.839,2.984
		C19.774,5.938,19.227,4.203,19.227,4.203z"/>
</g>
</svg>
