<?xml version="1.0" encoding="iso-8859-1"?>
<!-- Generator: Adobe Illustrator 12.0.1, SVG Export Plug-In . SVG Version: 6.00 Build 51448)  -->
<!DOCTYPE svg PUBLIC "-//W3C//DTD SVG 1.1//EN" "http://www.w3.org/Graphics/SVG/1.1/DTD/svg11.dtd" [
	<!ENTITY ns_svg "http://www.w3.org/2000/svg">
	<!ENTITY ns_xlink "http://www.w3.org/1999/xlink">
]>
<svg  version="1.1" id="&#xCD;_xBC__xB2_&#xE3;_x5F_1" xmlns="&ns_svg;" xmlns:xlink="&ns_xlink;" width="18.333" height="18.814"
	 viewBox="0 0 18.333 18.814" style="overflow:visible;enable-background:new 0 0 18.333 18.814;" xml:space="preserve">
<g>
	<g>
		<rect x="4.479" y="5.403" style="fill:#7D8489;stroke:#000000;stroke-width:0.25;" width="7.238" height="0.361"/>
		<rect x="0.125" y="6.285" style="fill:#C58C2D;stroke:#69493E;stroke-width:0.25;" width="16.302" height="12.404"/>
		<linearGradient id="XMLID_7_" gradientUnits="userSpaceOnUse" x1="8.2593" y1="14.269" x2="8.2593" y2="12.2391">
			<stop  offset="0" style="stop-color:#CDCED0"/>
			<stop  offset="0.1397" style="stop-color:#ABADB0"/>
			<stop  offset="0.3546" style="stop-color:#808284"/>
			<stop  offset="0.554" style="stop-color:#5E5F61"/>
			<stop  offset="0.7316" style="stop-color:#414142"/>
			<stop  offset="0.8806" style="stop-color:#1A1A1A"/>
			<stop  offset="0.9831" style="stop-color:#000000"/>
		</linearGradient>
		<path style="fill:url(#XMLID_7_);" d="M16.328,12.375c0,0-0.538,1.397-1.658,1.623c0,0-12.652,0.046-12.527,0
			c-1.661-0.09-1.952-1.623-1.952-1.623V6.915h16.138V12.375z"/>
		<path style="fill:#C58C2D;stroke:#69493E;stroke-width:0.25;" d="M16.313,11.744c0,0-0.536,1.398-1.659,1.621
			c0,0-12.652,0.047-12.525,0c-1.661-0.089-1.952-1.623-1.952-1.623V6.285h16.135V11.744z"/>
		<polygon style="fill:#D4DADF;stroke:#696A6C;stroke-width:0.25;" points="8.89,13.982 8.612,15.019 7.588,15.019 7.367,13.952 
			7.341,12.449 8.89,12.449 		"/>
		<rect x="7.59" y="13.23" style="fill:#A6ACB3;stroke:#000000;stroke-width:0.25;" width="1.05" height="0.573"/>
		<linearGradient id="XMLID_8_" gradientUnits="userSpaceOnUse" x1="14.0947" y1="12.2095" x2="14.0947" y2="12.0931">
			<stop  offset="0" style="stop-color:#CDCED0"/>
			<stop  offset="0.1397" style="stop-color:#ABADB0"/>
			<stop  offset="0.3546" style="stop-color:#808284"/>
			<stop  offset="0.554" style="stop-color:#5E5F61"/>
			<stop  offset="0.7316" style="stop-color:#414142"/>
			<stop  offset="0.8806" style="stop-color:#1A1A1A"/>
			<stop  offset="0.9831" style="stop-color:#000000"/>
		</linearGradient>
		<rect x="13.244" y="11.788" style="fill:url(#XMLID_8_);" width="1.701" height="0.407"/>
		<path style="fill:#A2A8AF;stroke:#363639;stroke-width:0.25;" d="M4.575,6.105H2.626C3.538,4.72,4.56,4.902,4.56,4.902
			L4.575,6.105z"/>
		<path style="fill:#FFFFFF;" d="M4.477,5.121L4.473,4.902c0,0-0.84-0.289-1.752,1.094h0.339C3.702,5.163,4.179,5.129,4.477,5.121z"
			/>
		<path style="fill:#A2A8AF;stroke:#363639;stroke-width:0.25;" d="M11.793,6.088l1.95-0.013c-1.018-1.414-1.941-1.19-1.941-1.19
			L11.793,6.088z"/>
		<path style="fill:#FFFFFF;" d="M13.352,5.974l0.331-0.002c-1.018-1.414-1.812-1.068-1.812-1.068l-0.002,0.188
			C12.155,5.099,12.656,5.117,13.352,5.974z"/>
		<rect x="0.219" y="6.285" style="fill:#FFFFFF;" width="16.067" height="0.3"/>
	</g>
	<rect x="7.483" y="12.495" style="fill:#FFFFFF;" width="1.256" height="0.192"/>
</g>
<g>
	
		<linearGradient id="XMLID_9_" gradientUnits="userSpaceOnUse" x1="-4.8647" y1="-60.9482" x2="-2.5776" y2="-61.9073" gradientTransform="matrix(0.9968 -0.0791 0.0791 0.9968 19.7683 70.5517)">
		<stop  offset="0.0056" style="stop-color:#424242"/>
		<stop  offset="0.3202" style="stop-color:#FFFFFF"/>
		<stop  offset="0.736" style="stop-color:#CCCCCC"/>
		<stop  offset="1" style="stop-color:#424242"/>
	</linearGradient>
	<path style="fill:url(#XMLID_9_);stroke:#000100;stroke-width:0.25;" d="M7.287,4.555c0,0,4.915,10.216,5.851,11.451
		c0.939,1.234,4.774-0.281,5.063-1.934c0.29-1.654-7.004-12.892-7.004-12.892s-1.112-0.008-1.629,0.307
		c-0.375,0.225-1.565,0.887-1.72,1.121C7.694,2.842,7.287,4.555,7.287,4.555z"/>
	
		<linearGradient id="XMLID_10_" gradientUnits="userSpaceOnUse" x1="-5.1616" y1="-62.4629" x2="2.9409" y2="-62.4629" gradientTransform="matrix(0.9968 -0.0791 0.0791 0.9968 19.7683 70.5517)">
		<stop  offset="0.1067" style="stop-color:#ECECEC"/>
		<stop  offset="0.3202" style="stop-color:#FFFFFF"/>
		<stop  offset="0.736" style="stop-color:#CCCCCC"/>
		<stop  offset="1" style="stop-color:#424242"/>
	</linearGradient>
	<path style="fill:url(#XMLID_10_);stroke:#000100;stroke-width:0.25;" d="M9.357,1.672c0,0,0.554-0.488,1.527-0.691
		c0.972-0.199,1.557-0.319,2.122,0.277c0.569,0.599,3.132,6.129,4.229,8.761c0,0,1.487,3.467,0.759,4.563
		c-0.729,1.096-2.104,1.824-2.898,0.873c-0.791-0.951-4.848-10.667-5.331-11.79C9.281,2.542,8.913,2.002,9.357,1.672z"/>
	<path style="fill:#535456;" d="M7.95,2.551c0,0,1.141-0.809,1.808-1.107c0.67-0.302-0.725,0.086-0.469,0.877
		C9.5,2.974,14.613,14.33,14.938,14.996c0.324,0.67,1.088,0.953,1.64,0.736c0,0-0.64,0.348-0.86,0.389
		c-0.219,0.043-0.975-0.467-1.338-1.301c-0.364-0.838-4.136-9.757-4.415-10.156C9.687,4.267,9.654,3.552,8.483,3.743
		C7.312,3.936,8.074,2.565,7.95,2.551z"/>
	
		<linearGradient id="XMLID_11_" gradientUnits="userSpaceOnUse" x1="-4.2432" y1="-64.0083" x2="2.2378" y2="-64.0083" gradientTransform="matrix(0.9968 -0.0791 0.0791 0.9968 19.7683 70.5517)">
		<stop  offset="0" style="stop-color:#E5DA67"/>
		<stop  offset="0.9831" style="stop-color:#E7AB39"/>
	</linearGradient>
	<path style="fill:url(#XMLID_11_);stroke:#000100;stroke-width:0.25;" d="M10.314,3.473C10.1,2.922,9.915,2.47,10.859,2.221
		c0.945-0.248,2.219-0.659,2.49-0.319c0.576,0.719,3.429,6.533,3.844,8.195c0.131,0.518-0.014,0.742-0.577,0.811
		c-0.35,0.046-0.575-0.076-1.026,0.479c-0.45,0.555-1.157,0.66-1.519,0.17C13.443,10.699,10.53,4.025,10.314,3.473z"/>
	
		<linearGradient id="XMLID_12_" gradientUnits="userSpaceOnUse" x1="-37.0303" y1="-36.8403" x2="-35.7528" y2="-37.4299" gradientTransform="matrix(0.9023 0.0193 -0.0158 0.7697 39.3517 31.3649)">
		<stop  offset="0.0056" style="stop-color:#4F4F4F"/>
		<stop  offset="0.3202" style="stop-color:#FFFFFF"/>
		<stop  offset="0.736" style="stop-color:#CCCCCC"/>
		<stop  offset="1" style="stop-color:#424242"/>
	</linearGradient>
	<path style="fill:url(#XMLID_12_);stroke:#000100;stroke-width:0.25;" d="M5.746,0.894c0,0-0.182-0.331,0.233-0.562
		c0.106-0.061,0.102-0.057,0.373-0.17C6.534,0.086,6.899,0.096,7.11,0.508c0.206,0.398,1.305,2.569,1.305,2.569
		s0.17,0.403-0.237,0.698C7.773,4.069,7.503,4.159,7.327,4.06C7.152,3.963,5.746,0.894,5.746,0.894z"/>
	<path style="fill:#90BD45;stroke:#000100;stroke-width:0.25;stroke-linecap:round;stroke-linejoin:round;" d="M11.006,3.766
		c0,0,1.983-0.554,2.534-0.77l2.735,5.814l-2.333,1.125L11.006,3.766z"/>
</g>
</svg>
