<?xml version="1.0" encoding="iso-8859-1"?>
<!-- Generator: Adobe Illustrator 12.0.0, SVG Export Plug-In . SVG Version: 6.00 Build 51448)  -->
<!DOCTYPE svg PUBLIC "-//W3C//DTD SVG 1.1//EN" "http://www.w3.org/Graphics/SVG/1.1/DTD/svg11.dtd" [
	<!ENTITY ns_svg "http://www.w3.org/2000/svg">
	<!ENTITY ns_xlink "http://www.w3.org/1999/xlink">
]>
<svg  version="1.1" id="&#xCD;_xBC__xB2_&#xE3;_x5F_1" xmlns="&ns_svg;" xmlns:xlink="&ns_xlink;" width="16.978" height="18.987"
	 viewBox="0 0 16.978 18.987" style="overflow:visible;enable-background:new 0 0 16.978 18.987;" xml:space="preserve">
<g>
	<linearGradient id="XMLID_10_" gradientUnits="userSpaceOnUse" x1="0.25" y1="11.5205" x2="5.7031" y2="11.5205">
		<stop  offset="0.0056" style="stop-color:#BAE5F3"/>
		<stop  offset="0.152" style="stop-color:#B6E3F3"/>
		<stop  offset="0.3131" style="stop-color:#A7DEF2"/>
		<stop  offset="0.4813" style="stop-color:#8DD6F1"/>
		<stop  offset="0.6543" style="stop-color:#67CDEF"/>
		<stop  offset="0.8292" style="stop-color:#00C1ED"/>
		<stop  offset="1" style="stop-color:#00B5EB"/>
	</linearGradient>
	<path style="fill:url(#XMLID_10_);stroke:#4B5354;stroke-width:0.5;" d="M0.472,15.192c-0.594-0.405,0.047-2.378,1.43-4.406
		s2.986-3.343,3.58-2.938c0.594,0.404-0.047,2.378-1.43,4.405C2.668,14.281,1.065,15.598,0.472,15.192z"/>
	<linearGradient id="XMLID_11_" gradientUnits="userSpaceOnUse" x1="10.0498" y1="10.8857" x2="16.728" y2="10.8857">
		<stop  offset="0.0056" style="stop-color:#BAE5F3"/>
		<stop  offset="0.152" style="stop-color:#B6E3F3"/>
		<stop  offset="0.3131" style="stop-color:#A7DEF2"/>
		<stop  offset="0.4813" style="stop-color:#8DD6F1"/>
		<stop  offset="0.6543" style="stop-color:#67CDEF"/>
		<stop  offset="0.8292" style="stop-color:#00C1ED"/>
		<stop  offset="1" style="stop-color:#00B5EB"/>
	</linearGradient>
	<path style="fill:url(#XMLID_11_);stroke:#4B5354;stroke-width:0.5;" d="M16.604,13.954c-0.495,0.521-2.337-0.433-4.113-2.128
		c-1.775-1.694-2.813-3.49-2.316-4.01c0.498-0.521,2.338,0.433,4.114,2.127C16.063,11.638,17.102,13.435,16.604,13.954z"/>
	<path style="fill:#FFFFFF;stroke:#000000;stroke-width:0.5;" d="M13.548,17.68c-1.523,1.766-9.444,0.999-11.023-0.097
		c-0.611-0.423,0.357-7.999,2.833-9.81c1.841-1.346,3.679-1.161,5.238-0.095C12.929,9.274,14.049,17.1,13.548,17.68z"/>
	<linearGradient id="XMLID_12_" gradientUnits="userSpaceOnUse" x1="6.8809" y1="10.3516" x2="8.3564" y2="10.3516">
		<stop  offset="0.0056" style="stop-color:#BAE5F3"/>
		<stop  offset="0.152" style="stop-color:#B6E3F3"/>
		<stop  offset="0.3131" style="stop-color:#A7DEF2"/>
		<stop  offset="0.4813" style="stop-color:#8DD6F1"/>
		<stop  offset="0.6543" style="stop-color:#67CDEF"/>
		<stop  offset="0.8292" style="stop-color:#00C1ED"/>
		<stop  offset="1" style="stop-color:#00B5EB"/>
	</linearGradient>
	<polygon style="fill:url(#XMLID_12_);stroke:#4B5354;stroke-width:0.5;" points="8.356,11.797 6.881,11.834 7.429,8.869 
		8.131,8.869 	"/>
	<linearGradient id="XMLID_13_" gradientUnits="userSpaceOnUse" x1="1.999" y1="13.1152" x2="8.0088" y2="13.1152">
		<stop  offset="0.0056" style="stop-color:#BAE5F3"/>
		<stop  offset="0.152" style="stop-color:#B6E3F3"/>
		<stop  offset="0.3131" style="stop-color:#A7DEF2"/>
		<stop  offset="0.4813" style="stop-color:#8DD6F1"/>
		<stop  offset="0.6543" style="stop-color:#67CDEF"/>
		<stop  offset="0.8292" style="stop-color:#00C1ED"/>
		<stop  offset="1" style="stop-color:#00B5EB"/>
	</linearGradient>
	<path style="fill:url(#XMLID_13_);stroke:#4B5354;stroke-width:0.5;" d="M7.485,12.251c0,0-1.738-3.639-1.652-4.7
		c-2.983,1.843-4.824,8.724-3.27,10.032c0.912,0.768,5.445,1.096,5.445,1.096L7.485,12.251z"/>
	<linearGradient id="XMLID_14_" gradientUnits="userSpaceOnUse" x1="7.2705" y1="13.0723" x2="13.8516" y2="13.0723">
		<stop  offset="0.0056" style="stop-color:#BAE5F3"/>
		<stop  offset="0.152" style="stop-color:#B6E3F3"/>
		<stop  offset="0.3131" style="stop-color:#A7DEF2"/>
		<stop  offset="0.4813" style="stop-color:#8DD6F1"/>
		<stop  offset="0.6543" style="stop-color:#67CDEF"/>
		<stop  offset="0.8292" style="stop-color:#00C1ED"/>
		<stop  offset="1" style="stop-color:#00B5EB"/>
	</linearGradient>
	<path style="fill:url(#XMLID_14_);stroke:#4B5354;stroke-width:0.5;" d="M7.39,12.092c0,0,2.816-3.453,2.675-4.686
		c3.046,1.738,4.35,8.534,3.563,10.083c-0.798,1.57-6.356,1.213-6.356,1.213L7.39,12.092z"/>
	<radialGradient id="XMLID_15_" cx="6.4048" cy="1.9644" r="5.759" gradientUnits="userSpaceOnUse">
		<stop  offset="0.0056" style="stop-color:#F5EACE"/>
		<stop  offset="0.0796" style="stop-color:#F8E6BF"/>
		<stop  offset="0.1842" style="stop-color:#F9E1AE"/>
		<stop  offset="0.2528" style="stop-color:#FAE0A7"/>
		<stop  offset="0.563" style="stop-color:#E3C382"/>
		<stop  offset="0.823" style="stop-color:#D6B36E"/>
		<stop  offset="1" style="stop-color:#D2AD67"/>
	</radialGradient>
	<circle style="fill:url(#XMLID_15_);stroke:#000000;stroke-width:0.5;" cx="8.088" cy="4.154" r="3.905"/>
	<linearGradient id="XMLID_16_" gradientUnits="userSpaceOnUse" x1="7.5957" y1="9.8213" x2="10.9531" y2="9.8213">
		<stop  offset="0.0056" style="stop-color:#BAE5F3"/>
		<stop  offset="0.152" style="stop-color:#B6E3F3"/>
		<stop  offset="0.3131" style="stop-color:#A7DEF2"/>
		<stop  offset="0.4813" style="stop-color:#8DD6F1"/>
		<stop  offset="0.6543" style="stop-color:#67CDEF"/>
		<stop  offset="0.8292" style="stop-color:#00C1ED"/>
		<stop  offset="1" style="stop-color:#00B5EB"/>
	</linearGradient>
	<path style="fill:url(#XMLID_16_);stroke:#4B5354;stroke-width:0.5;" d="M10.215,7.654c0.024,0.048,0.738,2.12,0.738,2.12
		l-0.977,0.261L9.81,11.249l-2.214,0.739C7.596,11.988,9.714,9.227,10.215,7.654z"/>
	<linearGradient id="XMLID_17_" gradientUnits="userSpaceOnUse" x1="4.6396" y1="9.7329" x2="7.2617" y2="9.7329">
		<stop  offset="0.0056" style="stop-color:#BAE5F3"/>
		<stop  offset="0.152" style="stop-color:#B6E3F3"/>
		<stop  offset="0.3131" style="stop-color:#A7DEF2"/>
		<stop  offset="0.4813" style="stop-color:#8DD6F1"/>
		<stop  offset="0.6543" style="stop-color:#67CDEF"/>
		<stop  offset="0.8292" style="stop-color:#00C1ED"/>
		<stop  offset="1" style="stop-color:#00B5EB"/>
	</linearGradient>
	<path style="fill:url(#XMLID_17_);stroke:#4B5354;stroke-width:0.5;" d="M5.762,7.513C5.729,7.555,4.64,9.363,4.64,9.363
		l0.906,0.447l-0.072,1.223l1.788,0.92C7.262,11.953,5.946,9.151,5.762,7.513z"/>
	<ellipse style="fill:#FFFFFF;stroke:#888F95;stroke-width:0.5;" cx="7.882" cy="13.572" rx="0.262" ry="0.25"/>
	<ellipse style="fill:#FFFFFF;stroke:#888F95;stroke-width:0.5;" cx="7.881" cy="16" rx="0.286" ry="0.25"/>
	<linearGradient id="XMLID_18_" gradientUnits="userSpaceOnUse" x1="7.2861" y1="8.4351" x2="8.2383" y2="8.4351">
		<stop  offset="0.0056" style="stop-color:#BAE5F3"/>
		<stop  offset="0.152" style="stop-color:#B6E3F3"/>
		<stop  offset="0.3131" style="stop-color:#A7DEF2"/>
		<stop  offset="0.4813" style="stop-color:#8DD6F1"/>
		<stop  offset="0.6543" style="stop-color:#67CDEF"/>
		<stop  offset="0.8292" style="stop-color:#00C1ED"/>
		<stop  offset="1" style="stop-color:#00B5EB"/>
	</linearGradient>
	<polygon style="fill:url(#XMLID_18_);stroke:#4B5354;stroke-width:0.5;" points="8.096,8.811 7.452,8.811 7.286,8.06 8.238,8.06 	
		"/>
</g>
</svg>
